<svg xmlns:xlink="http://www.w3.org/1999/xlink" xmlns="http://www.w3.org/2000/svg" width="18" height="18" viewBox="0 0 19 19"><path d="M19.043 3.805c.134 0 .256.025.368.077.11.053.21.123.3.212.089.074.159.17.211.289A.946.946 0 0120 4.76V19l-3.805-3.805H5.761a.93.93 0 01-.378-.077.77.77 0 01-.289-.212.77.77 0 01-.212-.289.93.93 0 01-.077-.378v-1.891h12.347V3.805h1.891zM15.24 9.5a.89.89 0 01-.267.667c-.09.09-.193.16-.311.212a.893.893 0 01-.356.078h-9.5L1 14.239V.957c0-.134.027-.256.078-.368.052-.11.122-.21.212-.3.089-.089.188-.159.3-.211A.866.866 0 011.956 0h12.348c.118 0 .237.027.356.078.118.052.222.122.31.212a.89.89 0 01.268.667V9.5z" fill="#044254" mask="url(#icon-messages_svg__mask-2)" transform="translate(-1)" fill-rule="evenodd"></path></svg>